<svg width="32" height="32" viewBox="0 0 32 32" fill="none" xmlns="http://www.w3.org/2000/svg">
<path fill-rule="evenodd" clip-rule="evenodd" d="M0 16C0 7.1632 7.1632 0 16 0C24.8368 0 32 7.1632 32 16C32 24.8368 24.8368 32 16 32C7.1632 32 0 24.8368 0 16ZM28.8001 16C28.8001 8.94246 23.0576 3.2 16 3.2C8.94246 3.2 3.2 8.94246 3.2 16C3.2 23.0576 8.94246 28.8001 16 28.8001C23.0576 28.8001 28.8001 23.0576 28.8001 16ZM14.4001 22.4H11.2V9.60006H14.4001V22.4ZM20.8 22.4H17.6V9.60006H20.8V22.4Z" fill="white"/>
</svg>
