<svg width="32" height="32" viewBox="0 0 32 32" fill="none" xmlns="http://www.w3.org/2000/svg">
<path fill-rule="evenodd" clip-rule="evenodd" d="M0 16C0 7.16322 7.16318 0 15.9999 0C24.8367 0 32 7.16322 32 16C32 24.8368 24.8367 32 15.9999 32C7.16318 32 0 24.8368 0 16ZM28.8 16C28.8 8.94245 23.0576 3.20001 15.9999 3.20001C8.9424 3.20001 3.19999 8.94245 3.19999 16C3.19999 23.0576 8.9424 28.8001 15.9999 28.8001C23.0576 28.8001 28.8 23.0576 28.8 16ZM22.4 16L12.8 23.2V8.80001L22.4 16Z" fill="white"/>
</svg>
